<svg width="25" height="19" viewBox="0 0 25 19" fill="none" xmlns="http://www.w3.org/2000/svg">
<path d="M20.38 1.74442C18.85 1.05442 17.21 0.544415 15.495 0.254415C15.4797 0.251483 15.4639 0.253372 15.4497 0.259822C15.4356 0.266272 15.4238 0.276963 15.416 0.290415C15.206 0.659415 14.972 1.14042 14.808 1.52042C12.9891 1.24865 11.1399 1.24865 9.32098 1.52042C9.13832 1.09928 8.93233 0.688639 8.70398 0.290415C8.69624 0.276798 8.68453 0.265865 8.67042 0.259075C8.6563 0.252286 8.64045 0.249962 8.62498 0.252415C6.91098 0.542415 5.27098 1.05242 3.73998 1.74342C3.72681 1.74894 3.71564 1.75836 3.70798 1.77042C0.595981 6.34542 -0.257019 10.8074 0.161981 15.2134C0.163147 15.2242 0.166496 15.2346 0.171826 15.2441C0.177155 15.2536 0.184353 15.2618 0.192981 15.2684C2.00937 16.5908 4.03532 17.5982 6.18598 18.2484C6.20097 18.253 6.21701 18.253 6.23199 18.2484C6.24698 18.2437 6.26022 18.2347 6.26998 18.2224C6.73278 17.6035 7.14288 16.9469 7.49598 16.2594C7.50088 16.25 7.50371 16.2397 7.50426 16.2291C7.50482 16.2185 7.5031 16.2079 7.49921 16.1981C7.49532 16.1882 7.48936 16.1793 7.48173 16.1719C7.4741 16.1646 7.46498 16.1589 7.45498 16.1554C6.80899 15.9121 6.18307 15.6186 5.58298 15.2774C5.5722 15.2713 5.56311 15.2625 5.55654 15.252C5.54996 15.2415 5.54611 15.2295 5.54531 15.2171C5.54452 15.2047 5.54682 15.1923 5.55199 15.181C5.55717 15.1697 5.56507 15.1599 5.57498 15.1524C5.70098 15.0594 5.82698 14.9624 5.94698 14.8654C5.95778 14.8567 5.97079 14.8511 5.98456 14.8494C5.99834 14.8476 6.01233 14.8497 6.02498 14.8554C9.95198 16.6194 14.205 16.6194 18.086 14.8554C18.0987 14.8494 18.1128 14.847 18.1268 14.8486C18.1407 14.8502 18.154 14.8557 18.165 14.8644C18.285 14.9624 18.41 15.0594 18.537 15.1524C18.547 15.1597 18.555 15.1694 18.5604 15.1806C18.5657 15.1918 18.5682 15.2041 18.5676 15.2165C18.567 15.2289 18.5633 15.241 18.557 15.2516C18.5506 15.2622 18.5416 15.2711 18.531 15.2774C17.933 15.6214 17.311 15.9124 16.658 16.1544C16.648 16.1581 16.6388 16.1638 16.6312 16.1712C16.6235 16.1787 16.6176 16.1877 16.6137 16.1976C16.6098 16.2076 16.6081 16.2182 16.6087 16.2289C16.6092 16.2395 16.6121 16.2499 16.617 16.2594C16.977 16.9464 17.389 17.6004 17.842 18.2214C17.8514 18.2342 17.8645 18.2437 17.8796 18.2487C17.8946 18.2537 17.9108 18.254 17.926 18.2494C20.0803 17.6011 22.1096 16.5932 23.928 15.2684C23.9369 15.2622 23.9443 15.2542 23.9498 15.2449C23.9553 15.2356 23.9588 15.2252 23.96 15.2144C24.46 10.1204 23.122 5.69442 20.411 1.77241C20.4043 1.75967 20.3933 1.74973 20.38 1.74442ZM8.08298 12.5304C6.90098 12.5304 5.92598 11.4614 5.92598 10.1504C5.92598 8.83841 6.88198 7.77041 8.08298 7.77041C9.29298 7.77041 10.259 8.84741 10.24 10.1504C10.24 11.4624 9.28398 12.5304 8.08298 12.5304ZM16.058 12.5304C14.875 12.5304 13.901 11.4614 13.901 10.1504C13.901 8.83841 14.856 7.77041 16.058 7.77041C17.268 7.77041 18.234 8.84741 18.215 10.1504C18.215 11.4624 17.269 12.5304 16.058 12.5304Z" fill="black"/>
</svg>
