<svg width="150" height="150" viewBox="0 0 150 150" fill="none" xmlns="http://www.w3.org/2000/svg">
<path d="M74.9999 150C116.421 150 150 116.421 150 75C150 33.5786 116.421 0 74.9999 0C33.5786 0 0 33.5786 0 75C0 116.421 33.5786 150 74.9999 150Z" fill="#FD3D3D"/>
<path d="M74.9997 118.965C99.2811 118.965 118.965 99.2812 118.965 74.9997C118.965 50.7182 99.2811 31.0342 74.9997 31.0342C50.7182 31.0342 31.0342 50.7182 31.0342 74.9997C31.0342 99.2812 50.7182 118.965 74.9997 118.965Z" fill="#EFF2FA"/>
<path d="M74.9997 25.8625C102.138 25.8625 124.137 47.8624 124.137 75.0004C124.137 102.138 102.138 124.138 74.9997 124.138C47.8617 124.138 25.8618 102.138 25.8618 75.0004C25.8618 47.8624 47.8617 25.8625 74.9997 25.8625ZM74.9997 20.6902C45.0527 20.6902 20.6895 45.0535 20.6895 75.0004C20.6895 104.947 45.0527 129.311 74.9997 129.311C104.947 129.311 129.31 104.947 129.31 75.0004C129.31 45.0535 104.947 20.6902 74.9997 20.6902Z" fill="#E01E41"/>
<path d="M75.0009 0C70.5888 0 66.273 0.402832 62.0698 1.13379V13.0591C62.0698 15.0226 63.8074 16.5565 65.7469 16.2492C68.763 15.7711 71.8523 15.5174 75.0009 15.5174C78.1494 15.5174 81.2387 15.7711 84.2549 16.2492C86.1943 16.5565 87.9319 15.0228 87.9319 13.0591V1.13379C83.7287 0.402832 79.413 0 75.0009 0Z" fill="#EFF2FA"/>
<path d="M62.0698 136.941V148.866C66.273 149.597 70.5888 150 75.0009 150C79.413 150 83.7287 149.597 87.9319 148.866V136.941C87.9319 134.978 86.1943 133.444 84.2549 133.751C81.2387 134.229 78.1494 134.483 75.0009 134.483C71.8523 134.483 68.763 134.229 65.7469 133.751C63.8074 133.444 62.0698 134.978 62.0698 136.941Z" fill="#EFF2FA"/>
<path d="M150.001 75.0001C150.001 70.588 149.598 66.2723 148.867 62.0691H136.942C134.978 62.0691 133.444 63.8067 133.752 65.7461C134.23 68.7622 134.484 71.8516 134.484 75.0001C134.484 78.1487 134.23 81.238 133.752 84.2541C133.444 86.1936 134.978 87.9312 136.942 87.9312H148.867C149.598 83.728 150.001 79.4122 150.001 75.0001Z" fill="#EFF2FA"/>
<path d="M13.0591 62.0691H1.13379C0.402832 66.2723 0 70.588 0 75.0001C0 79.4122 0.402832 83.728 1.13379 87.9312H13.0591C15.0225 87.9312 16.5565 86.1936 16.2492 84.2541C15.7711 81.238 15.5174 78.1487 15.5174 75.0001C15.5174 71.8516 15.7711 68.7622 16.2492 65.7461C16.5565 63.8067 15.0225 62.0691 13.0591 62.0691Z" fill="#EFF2FA"/>
<path d="M128.033 21.9665C124.913 18.8467 121.576 16.0799 118.088 13.6245L109.655 22.057C108.266 23.4454 108.411 25.759 109.999 26.9127C112.47 28.7071 114.834 30.7125 117.06 32.9388C119.286 35.165 121.292 37.529 123.086 39.9999C124.24 41.5884 126.553 41.7325 127.942 40.3441L136.374 31.9116C133.919 28.4229 131.153 25.0866 128.033 21.9665Z" fill="#EFF2FA"/>
<path d="M22.057 109.656L13.6245 118.088C16.0799 121.577 18.8467 124.913 21.9665 128.033C25.0863 131.153 28.4229 133.92 31.9116 136.375L40.3441 127.943C41.7325 126.554 41.5884 124.241 39.9999 123.087C37.529 121.293 35.1653 119.287 32.9387 117.061C30.7125 114.835 28.7071 112.471 26.9127 110C25.759 108.411 23.4457 108.267 22.057 109.656Z" fill="#EFF2FA"/>
<path d="M128.033 128.033C131.153 124.914 133.919 121.577 136.375 118.088L127.942 109.656C126.554 108.267 124.24 108.411 123.086 110C121.292 112.471 119.286 114.834 117.06 117.061C114.834 119.287 112.47 121.293 109.999 123.087C108.411 124.241 108.266 126.554 109.655 127.943L118.087 136.375C121.576 133.92 124.913 131.153 128.033 128.033Z" fill="#EFF2FA"/>
<path d="M40.3441 22.0575L31.9116 13.6252C28.4226 16.0806 25.0863 18.8471 21.9662 21.9669C18.8461 25.0868 16.0796 28.4234 13.6245 31.9121L22.0567 40.3446C23.4451 41.7329 25.7587 41.5888 26.9124 40.0003C28.7068 37.5294 30.7122 35.1658 32.9384 32.9392C35.1647 30.7129 37.5287 28.7076 39.9996 26.9131C41.5886 25.7594 41.7328 23.4461 40.3441 22.0575Z" fill="#EFF2FA"/>
<path d="M15.2654 103.623C17.4078 103.623 19.1446 101.886 19.1446 99.7437C19.1446 97.6013 17.4078 95.8645 15.2654 95.8645C13.123 95.8645 11.3862 97.6013 11.3862 99.7437C11.3862 101.886 13.123 103.623 15.2654 103.623Z" fill="#EFF2FA"/>
<path d="M134.735 54.1353C136.878 54.1353 138.614 52.3986 138.614 50.2562C138.614 48.1137 136.878 46.377 134.735 46.377C132.593 46.377 130.856 48.1137 130.856 50.2562C130.856 52.3986 132.593 54.1353 134.735 54.1353Z" fill="#EFF2FA"/>
<path d="M50.2562 19.1446C52.3986 19.1446 54.1354 17.4078 54.1354 15.2654C54.1354 13.123 52.3986 11.3862 50.2562 11.3862C48.1137 11.3862 46.377 13.123 46.377 15.2654C46.377 17.4078 48.1137 19.1446 50.2562 19.1446Z" fill="#EFF2FA"/>
<path d="M99.743 138.614C101.885 138.614 103.622 136.878 103.622 134.735C103.622 132.593 101.885 130.856 99.743 130.856C97.6005 130.856 95.8638 132.593 95.8638 134.735C95.8638 136.878 97.6005 138.614 99.743 138.614Z" fill="#EFF2FA"/>
<path d="M15.2654 54.1353C17.4078 54.1353 19.1446 52.3986 19.1446 50.2562C19.1446 48.1137 17.4078 46.377 15.2654 46.377C13.123 46.377 11.3862 48.1137 11.3862 50.2562C11.3862 52.3986 13.123 54.1353 15.2654 54.1353Z" fill="#EFF2FA"/>
<path d="M134.735 103.623C136.878 103.623 138.614 101.886 138.614 99.7437C138.614 97.6013 136.878 95.8645 134.735 95.8645C132.593 95.8645 130.856 97.6013 130.856 99.7437C130.856 101.886 132.593 103.623 134.735 103.623Z" fill="#EFF2FA"/>
<path d="M99.743 19.1446C101.885 19.1446 103.622 17.4078 103.622 15.2654C103.622 13.123 101.885 11.3862 99.743 11.3862C97.6005 11.3862 95.8638 13.123 95.8638 15.2654C95.8638 17.4078 97.6005 19.1446 99.743 19.1446Z" fill="#EFF2FA"/>
<path d="M50.2562 138.614C52.3986 138.614 54.1354 136.878 54.1354 134.735C54.1354 132.593 52.3986 130.856 50.2562 130.856C48.1137 130.856 46.377 132.593 46.377 134.735C46.377 136.878 48.1137 138.614 50.2562 138.614Z" fill="#EFF2FA"/>
<path d="M118.395 42.4805L113.909 45.0703C116.534 48.4775 118.746 52.2152 120.413 56.2471L124.922 53.644C123.203 49.6424 120.979 45.9196 118.395 42.4805Z" fill="#EFF2FA"/>
<path d="M93.7544 29.5866C97.7859 31.2533 101.524 33.4655 104.931 36.0905L107.521 31.6049C104.082 29.0206 100.359 26.7964 96.3577 25.0781L93.7544 29.5866Z" fill="#EFF2FA"/>
<path d="M68.5342 21.1121V26.3366C70.6553 26.0571 72.8024 25.8625 74.9997 25.8625C77.197 25.8625 79.3441 26.0568 81.4652 26.3363V21.1121C79.3409 20.8583 77.1911 20.6902 74.9997 20.6902C72.8083 20.6902 70.6585 20.8581 68.5342 21.1121Z" fill="#EFF2FA"/>
<path d="M124.138 74.9997C124.138 77.197 123.943 79.3441 123.664 81.4652H128.888C129.142 79.3409 129.31 77.1911 129.31 74.9997C129.31 72.8083 129.142 70.6585 128.888 68.5342H123.664C123.943 70.6553 124.138 72.8024 124.138 74.9997Z" fill="#EFF2FA"/>
<path d="M25.8618 74.9997C25.8618 72.8024 26.056 70.6553 26.3355 68.5342H21.1113C20.8576 70.6585 20.6895 72.8083 20.6895 74.9997C20.6895 77.1911 20.8579 79.3409 21.1113 81.4652H26.3355C26.056 79.3441 25.8618 77.197 25.8618 74.9997Z" fill="#EFF2FA"/>
<path d="M45.07 36.0912C48.4772 33.4663 52.2149 31.254 56.2468 29.5873L53.6437 25.0789C49.6424 26.7974 45.9196 29.0216 42.4805 31.6056L45.07 36.0912Z" fill="#EFF2FA"/>
<path d="M124.922 96.356L120.413 93.7529C118.746 97.7845 116.534 101.522 113.909 104.929L118.395 107.519C120.979 104.08 123.203 100.357 124.922 96.356Z" fill="#EFF2FA"/>
<path d="M81.4652 128.888V123.664C79.3441 123.943 77.197 124.137 74.9997 124.137C72.8024 124.137 70.6553 123.943 68.5342 123.664V128.888C70.6585 129.142 72.8083 129.31 74.9997 129.31C77.1911 129.31 79.3409 129.142 81.4652 128.888Z" fill="#EFF2FA"/>
<path d="M104.93 113.909C101.522 116.534 97.7848 118.746 93.7529 120.413L96.356 124.922C100.357 123.203 104.08 120.979 107.519 118.395L104.93 113.909Z" fill="#EFF2FA"/>
<path d="M56.2456 120.413C52.2141 118.746 48.4764 116.534 45.0688 113.909L42.479 118.395C45.9185 120.979 49.6409 123.203 53.6423 124.922L56.2456 120.413Z" fill="#EFF2FA"/>
<path d="M36.0905 104.93C33.4655 101.523 31.2536 97.7852 29.5866 93.7537L25.0781 96.3567C26.7964 100.358 29.0209 104.081 31.6049 107.52L36.0905 104.93Z" fill="#EFF2FA"/>
<path d="M25.0781 53.6433L29.5866 56.2463C31.2533 52.2148 33.4655 48.4771 36.0905 45.0696L31.6049 42.4797C29.0209 45.9195 26.7967 49.6422 25.0781 53.6433Z" fill="#EFF2FA"/>
<path d="M81.3973 92H89.6053V58.304H81.3973V71.504H68.6293V58.304H60.4213V92H68.6293V78.128H81.3973V92Z" fill="#FD3D3D"/>
</svg>
