<svg width="367" height="56" viewBox="0 0 367 56" fill="none" xmlns="http://www.w3.org/2000/svg">
<path d="M366.1 3.27007H338.826V6.54015H366.1V3.27007Z" fill="white"/>
<path d="M63.6909 21.0266C62.5328 23.0131 61.9538 25.2695 61.9538 27.7956C61.9538 30.3218 62.5328 32.5781 63.6909 34.5647C64.8742 36.5512 66.4728 38.1086 68.4869 39.2368C70.5262 40.3404 72.8046 40.8923 75.3222 40.8923C78.293 40.8923 80.8735 40.1688 83.0638 38.7218C85.2793 37.2502 86.8276 35.2023 87.7087 32.5781H81.6288C81.0245 33.8044 80.1686 34.7364 79.0608 35.374C77.9782 35.9872 76.7195 36.2937 75.2844 36.2937C73.7487 36.2937 72.3766 35.9504 71.1682 35.2636C69.9849 34.5524 69.0534 33.5591 68.3736 32.2838C67.7191 30.9839 67.3918 29.4879 67.3918 27.7956C67.3918 26.0788 67.7191 24.5828 68.3736 23.3074C69.0534 22.0321 69.9849 21.0511 71.1682 20.3644C72.3766 19.6531 73.7487 19.2975 75.2844 19.2975C76.7195 19.2975 77.9782 19.6041 79.0608 20.2172C80.1686 20.8304 81.0245 21.7501 81.6288 22.9763H87.7087C86.8276 20.3766 85.2793 18.341 83.0638 16.8695C80.8483 15.398 78.2678 14.6622 75.3222 14.6622C72.8046 14.6622 70.5262 15.2263 68.4869 16.3545C66.4728 17.4581 64.8742 19.0155 63.6909 21.0266Z" fill="white"/>
<path d="M105.782 31.732L114.694 14.9933H108.803L103.176 26.7288L97.5114 14.9933H91.5447L100.495 31.732V40.6715H105.782V31.732Z" fill="white"/>
<path d="M136.512 40.6715H141.799V14.9565H136.512V32.6149L124.541 14.9565H119.254V40.6715H124.541V23.0499L136.512 40.6715Z" fill="white"/>
<path d="M153.821 40.6715V14.9933H148.534V40.6715H153.821Z" fill="white"/>
<path d="M161.008 21.0266C159.85 23.0131 159.271 25.2695 159.271 27.7956C159.271 30.3218 159.85 32.5781 161.008 34.5647C162.191 36.5512 163.79 38.1086 165.804 39.2368C167.843 40.3404 170.122 40.8923 172.639 40.8923C175.61 40.8923 178.191 40.1688 180.381 38.7218C182.597 37.2502 184.145 35.2023 185.026 32.5781H178.946C178.342 33.8044 177.486 34.7364 176.378 35.374C175.296 35.9872 174.037 36.2937 172.602 36.2937C171.066 36.2937 169.694 35.9504 168.485 35.2636C167.302 34.5524 166.371 33.5591 165.691 32.2838C165.036 30.9839 164.709 29.4879 164.709 27.7956C164.709 26.0788 165.036 24.5828 165.691 23.3074C166.371 22.0321 167.302 21.0511 168.485 20.3644C169.694 19.6531 171.066 19.2975 172.602 19.2975C174.037 19.2975 175.296 19.6041 176.378 20.2172C177.486 20.8304 178.342 21.7501 178.946 22.9763H185.026C184.145 20.3766 182.597 18.341 180.381 16.8695C178.166 15.398 175.585 14.6622 172.639 14.6622C170.122 14.6622 167.843 15.2263 165.804 16.3545C163.79 17.4581 162.191 19.0155 161.008 21.0266Z" fill="white"/>
<path d="M205.678 40.0093C207.163 40.6225 208.825 40.9291 210.662 40.9291C212.601 40.9291 214.275 40.5857 215.685 39.899C217.095 39.1877 218.165 38.2435 218.895 37.0663C219.625 35.889 219.99 34.6137 219.99 33.2403C219.99 31.6461 219.6 30.3585 218.819 29.3775C218.039 28.3965 217.107 27.6607 216.025 27.1702C214.942 26.6797 213.545 26.1892 211.833 25.6987C210.574 25.3308 209.592 25.012 208.887 24.7422C208.208 24.4479 207.629 24.08 207.15 23.6385C206.697 23.1726 206.471 22.5962 206.471 21.9095C206.471 20.9285 206.773 20.1804 207.377 19.6654C208.006 19.1504 208.837 18.8928 209.869 18.8928C211.053 18.8928 211.997 19.1872 212.702 19.7758C213.432 20.3399 213.822 21.0634 213.872 21.9463H219.688C219.512 19.6409 218.568 17.8505 216.856 16.5752C215.169 15.2753 212.966 14.6254 210.247 14.6254C208.434 14.6254 206.823 14.932 205.413 15.5451C204.003 16.1337 202.908 16.9921 202.128 18.1203C201.347 19.2485 200.957 20.5728 200.957 22.0934C200.957 23.7121 201.335 25.012 202.09 25.993C202.136 26.0497 202.183 26.1055 202.23 26.1606H178.539V29.4307H208.464C208.652 29.4864 208.843 29.5422 209.039 29.5982C210.297 29.9416 211.279 30.2604 211.984 30.5547C212.714 30.8245 213.318 31.2047 213.797 31.6952C214.275 32.1857 214.514 32.8111 214.514 33.5714C214.514 34.5034 214.162 35.2636 213.457 35.8523C212.752 36.4163 211.783 36.6984 210.549 36.6984C209.341 36.6984 208.384 36.3918 207.679 35.7787C206.999 35.1655 206.622 34.3317 206.546 33.2771H200.882C200.907 34.8467 201.347 36.2079 202.203 37.3606C203.059 38.5133 204.217 39.3962 205.678 40.0093Z" fill="white"/>
<path fill-rule="evenodd" clip-rule="evenodd" d="M231.522 39.2368C233.587 40.365 235.852 40.9291 238.32 40.9291C240.787 40.9291 243.053 40.365 245.117 39.2368C247.182 38.1086 248.806 36.5512 249.989 34.5647C251.197 32.5536 251.801 30.285 251.801 27.7588C251.801 25.2572 251.197 23.0131 249.989 21.0266C248.806 19.0155 247.182 17.4458 245.117 16.3177C243.078 15.1895 240.812 14.6254 238.32 14.6254C235.852 14.6254 233.587 15.1895 231.522 16.3177C229.458 17.4458 227.821 19.0155 226.613 21.0266C225.404 23.0131 224.8 25.2572 224.8 27.7588C224.8 30.285 225.404 32.5536 226.613 34.5647C227.821 36.5512 229.458 38.1086 231.522 39.2368ZM242.512 35.3004C241.303 35.9872 239.906 36.3305 238.32 36.3305C236.734 36.3305 235.324 35.9872 234.09 35.3004C232.882 34.5892 231.938 33.5836 231.258 32.2838C230.578 30.9839 230.238 29.4756 230.238 27.7588C230.238 26.042 230.578 24.546 231.258 23.2707C231.938 21.9708 232.882 20.9775 234.09 20.2908C235.324 19.6041 236.734 19.2607 238.32 19.2607C239.906 19.2607 241.303 19.6041 242.512 20.2908C243.72 20.9775 244.664 21.9708 245.344 23.2707C246.024 24.546 246.363 26.042 246.363 27.7588C246.363 29.4756 246.024 30.9839 245.344 32.2838C244.664 33.5836 243.72 34.5892 242.512 35.3004Z" fill="white"/>
<path d="M257.698 21.0266C256.54 23.0131 255.961 25.2695 255.961 27.7956C255.961 30.3218 256.54 32.5781 257.698 34.5647C258.882 36.5512 260.48 38.1086 262.495 39.2368C264.534 40.3404 266.812 40.8923 269.33 40.8923C272.301 40.8923 274.881 40.1688 277.071 38.7218C279.287 37.2502 280.835 35.2023 281.716 32.5781H275.636C275.032 33.8044 274.176 34.7364 273.068 35.374C271.986 35.9872 270.727 36.2937 269.292 36.2937C267.756 36.2937 266.384 35.9504 265.176 35.2636C263.993 34.5524 263.061 33.5591 262.381 32.2838C261.727 30.9839 261.399 29.4879 261.399 27.7956C261.399 26.0788 261.727 24.5828 262.381 23.3074C263.061 22.0321 263.993 21.0511 265.176 20.3644C266.384 19.6531 267.756 19.2975 269.292 19.2975C270.727 19.2975 271.986 19.6041 273.068 20.2172C274.176 20.8304 275.032 21.7501 275.636 22.9763H281.716C280.835 20.3766 279.287 18.341 277.071 16.8695C274.856 15.398 272.275 14.6622 269.33 14.6622C266.812 14.6622 264.534 15.2263 262.495 16.3545C260.48 17.4581 258.882 19.0155 257.698 21.0266Z" fill="white"/>
<path d="M293.03 40.6715V14.9933H287.743V40.6715H293.03Z" fill="white"/>
<path d="M305.051 25.5883V19.1504H315.058V14.9565H299.764V40.6715H315.058V36.4777H305.051V29.6718H313.925V25.5883H305.051Z" fill="white"/>
<path d="M339.311 19.1504V14.9933H319.976V19.1504H327V40.6715H332.287V19.1504H339.311Z" fill="white"/>
<path d="M356.726 31.732L365.638 14.9933H359.747L354.12 26.7288L348.455 14.9933H342.489L351.439 31.732V40.6715H356.726V31.732Z" fill="white"/>
<path d="M87.906 49.4599H60.632V52.7299H87.906V49.4599Z" fill="white"/>
<path d="M6.96534 28C6.96534 26.3159 7.35137 24.8117 8.12343 23.4873C8.91228 22.1466 9.97806 21.1083 11.3208 20.3726C12.6803 19.6204 14.1992 19.2444 15.8776 19.2444C17.8413 19.2444 19.5617 19.7349 21.0387 20.7159C22.5157 21.6969 23.5479 23.054 24.1353 24.7872H20.082C19.6792 23.9696 19.1085 23.3565 18.37 22.9477C17.6483 22.539 16.8091 22.3346 15.8524 22.3346C14.8286 22.3346 13.9139 22.5717 13.1083 23.0458C12.3194 23.5036 11.6984 24.1577 11.2452 25.0079C10.8089 25.8581 10.5907 26.8555 10.5907 28C10.5907 29.1282 10.8089 30.1255 11.2452 30.9921C11.6984 31.8423 12.3194 32.5045 13.1083 32.9787C13.9139 33.4365 14.8286 33.6654 15.8524 33.6654C16.8091 33.6654 17.6483 33.461 18.37 33.0523C19.1085 32.6272 19.6792 32.0058 20.082 31.1883H24.1353C23.5479 32.9378 22.5157 34.3031 21.0387 35.2841C19.5785 36.2488 17.8581 36.7311 15.8776 36.7311C14.1992 36.7311 12.6803 36.3632 11.3208 35.6274C9.97806 34.8753 8.91228 33.8371 8.12343 32.5127C7.35137 31.1883 6.96534 29.6841 6.96534 28Z" fill="#B41BB7"/>
<path d="M34.2203 36.7556C32.995 36.7556 31.8873 36.5512 30.897 36.1425C29.9236 35.7337 29.1515 35.1451 28.5808 34.3766C28.0102 33.6082 27.7165 32.7007 27.6997 31.6543H31.4761C31.5264 32.3574 31.7782 32.9133 32.2314 33.322C32.7013 33.7308 33.3391 33.9352 34.1447 33.9352C34.9671 33.9352 35.6133 33.7472 36.0833 33.3711C36.5532 32.9787 36.7882 32.4718 36.7882 31.8505C36.7882 31.3436 36.6288 30.9267 36.3099 30.5997C35.991 30.2727 35.5881 30.0193 35.1014 29.8394C34.6483 29.6502 34.0235 29.4459 33.2271 29.2263H20.1407V26.7737H28.4866C27.9956 26.1226 27.75 25.2642 27.75 24.1985C27.75 23.1848 28.0102 22.3019 28.5305 21.5498C29.0508 20.7977 29.7809 20.2254 30.7208 19.833C31.6607 19.4242 32.7349 19.2199 33.9433 19.2199C35.756 19.2199 37.2246 19.6531 38.3491 20.5197C39.4904 21.3699 40.1198 22.5635 40.2373 24.1004H36.3602C36.3266 23.5118 36.0665 23.0295 35.5798 22.6534C35.1098 22.261 34.4804 22.0648 33.6916 22.0648C33.0034 22.0648 32.4495 22.2365 32.0299 22.5799C31.6271 22.9232 31.4257 23.4219 31.4257 24.0759C31.4257 24.5337 31.5768 24.918 31.8789 25.2286C32.1978 25.5229 32.5838 25.7682 33.037 25.9644C33.5069 26.1442 34.1615 26.3568 35.0007 26.602C36.142 26.929 37.0735 27.2561 37.7952 27.5831C38.5169 27.9101 39.138 28.4006 39.6583 29.0546C40.1786 29.7086 40.4387 30.567 40.4387 31.6298C40.4387 32.5454 40.1953 33.3956 39.7086 34.1804C39.2219 34.9653 38.5086 35.5947 37.5687 36.0689C36.6288 36.5267 35.5126 36.7556 34.2203 36.7556Z" fill="#B41BB7"/>
<path fill-rule="evenodd" clip-rule="evenodd" d="M0 0V56H50.5617V0H0ZM48.0441 2.45255H2.51759V53.5474H48.0441V2.45255Z" fill="#B41BB7"/>
</svg>
