<svg width="210" height="32" viewBox="0 0 210 32" fill="none" xmlns="http://www.w3.org/2000/svg">
<path d="M209.067 1.86861H193.492V3.73723H209.067V1.86861Z" fill="black"/>
<path d="M36.3716 12.0152C35.7103 13.1504 35.3796 14.4397 35.3796 15.8832C35.3796 17.3267 35.7103 18.6161 36.3716 19.7512C37.0473 20.8864 37.9603 21.7764 39.1104 22.421C40.275 23.0517 41.5761 23.367 43.0138 23.367C44.7103 23.367 46.184 22.9536 47.4348 22.1267C48.7 21.2858 49.5841 20.1156 50.0873 18.6161H46.6153C46.2702 19.3168 45.7814 19.8493 45.1488 20.2137C44.5306 20.5641 43.8117 20.7393 42.9923 20.7393C42.1153 20.7393 41.3317 20.5431 40.6416 20.1507C39.9659 19.7442 39.4339 19.1766 39.0457 18.4479C38.6719 17.7051 38.485 16.8502 38.485 15.8832C38.485 14.9022 38.6719 14.0473 39.0457 13.3185C39.4339 12.5898 39.9659 12.0292 40.6416 11.6368C41.3317 11.2304 42.1153 11.0272 42.9923 11.0272C43.8117 11.0272 44.5306 11.2023 45.1488 11.5527C45.7814 11.9031 46.2702 12.4286 46.6153 13.1293H50.0873C49.5841 11.6438 48.7 10.4806 47.4348 9.63971C46.1696 8.79883 44.6959 8.37839 43.0138 8.37839C41.5761 8.37839 40.275 8.70073 39.1104 9.3454C37.9603 9.97606 37.0473 10.866 36.3716 12.0152Z" fill="black"/>
<path d="M60.4082 18.1326L65.4977 8.56759H62.1334L58.9201 15.2736L55.6853 8.56759H52.2779L57.389 18.1326V23.2409H60.4082V18.1326Z" fill="black"/>
<path d="M77.957 23.2409H80.9762V8.54657H77.957V18.6371L71.1207 8.54657H68.1015V23.2409H71.1207V13.1714L77.957 23.2409Z" fill="black"/>
<path d="M87.8417 23.2409V8.56759H84.8225V23.2409H87.8417Z" fill="black"/>
<path d="M91.946 12.0152C91.2847 13.1504 90.954 14.4397 90.954 15.8832C90.954 17.3267 91.2847 18.6161 91.946 19.7512C92.6218 20.8864 93.5347 21.7764 94.6849 22.421C95.8494 23.0517 97.1505 23.367 98.5882 23.367C100.285 23.367 101.758 22.9536 103.009 22.1267C104.274 21.2858 105.159 20.1156 105.662 18.6161H102.19C101.845 19.3168 101.356 19.8493 100.723 20.2137C100.105 20.5641 99.3862 20.7393 98.5667 20.7393C97.6897 20.7393 96.9061 20.5431 96.216 20.1507C95.5403 19.7442 95.0083 19.1766 94.6202 18.4479C94.2464 17.7051 94.0595 16.8502 94.0595 15.8832C94.0595 14.9022 94.2464 14.0473 94.6202 13.3185C95.0083 12.5898 95.5403 12.0292 96.216 11.6368C96.9061 11.2304 97.6897 11.0272 98.5667 11.0272C99.3862 11.0272 100.105 11.2023 100.723 11.5527C101.356 11.9031 101.845 12.4286 102.19 13.1293H105.662C105.159 11.6438 104.274 10.4806 103.009 9.63971C101.744 8.79883 100.27 8.37839 98.5882 8.37839C97.1505 8.37839 95.8494 8.70073 94.6849 9.3454C93.5347 9.97606 92.6218 10.866 91.946 12.0152Z" fill="black"/>
<path d="M117.455 22.8625C118.303 23.2128 119.252 23.388 120.302 23.388C121.409 23.388 122.365 23.1918 123.17 22.7994C123.975 22.393 124.586 21.8534 125.003 21.1807C125.42 20.508 125.628 19.7793 125.628 18.9945C125.628 18.0835 125.406 17.3477 124.96 16.7872C124.514 16.2266 123.982 15.8061 123.364 15.5258C122.746 15.2455 121.948 14.9653 120.97 14.685C120.251 14.4747 119.691 14.2926 119.288 14.1384C118.9 13.9702 118.569 13.76 118.296 13.5077C118.037 13.2415 117.908 12.9121 117.908 12.5197C117.908 11.9591 118.081 11.5317 118.426 11.2374C118.785 10.9431 119.259 10.7959 119.849 10.7959C120.525 10.7959 121.064 10.9641 121.466 11.3004C121.883 11.6228 122.106 12.0362 122.135 12.5407H125.456C125.355 11.2234 124.816 10.2003 123.839 9.47153C122.875 8.72876 121.617 8.35737 120.065 8.35737C119.029 8.35737 118.109 8.53255 117.304 8.88292C116.499 9.21927 115.874 9.70978 115.428 10.3545C114.982 10.9991 114.759 11.7559 114.759 12.6248C114.759 13.5498 114.975 14.2926 115.406 14.8531C115.433 14.8855 115.459 14.9175 115.486 14.9489H101.957V16.8175H119.047C119.153 16.8493 119.263 16.8813 119.374 16.9133C120.093 17.1095 120.654 17.2917 121.057 17.4599C121.474 17.614 121.819 17.8312 122.092 18.1115C122.365 18.3918 122.501 18.7492 122.501 19.1836C122.501 19.7162 122.3 20.1507 121.898 20.487C121.495 20.8093 120.942 20.9705 120.237 20.9705C119.547 20.9705 119.001 20.7953 118.598 20.445C118.21 20.0946 117.994 19.6181 117.951 19.0155H114.716C114.731 19.9124 114.982 20.6902 115.471 21.3489C115.96 22.0076 116.621 22.5121 117.455 22.8625Z" fill="black"/>
<path fill-rule="evenodd" clip-rule="evenodd" d="M132.214 22.421C133.393 23.0657 134.687 23.388 136.096 23.388C137.505 23.388 138.799 23.0657 139.978 22.421C141.157 21.7764 142.084 20.8864 142.76 19.7512C143.45 18.602 143.795 17.3057 143.795 15.8622C143.795 14.4327 143.45 13.1504 142.76 12.0152C142.084 10.866 141.157 9.96905 139.978 9.32438C138.813 8.67971 137.519 8.35737 136.096 8.35737C134.687 8.35737 133.393 8.67971 132.214 9.32438C131.035 9.96905 130.101 10.866 129.411 12.0152C128.72 13.1504 128.375 14.4327 128.375 15.8622C128.375 17.3057 128.72 18.602 129.411 19.7512C130.101 20.8864 131.035 21.7764 132.214 22.421ZM138.49 20.1717C137.8 20.5641 137.002 20.7603 136.096 20.7603C135.19 20.7603 134.385 20.5641 133.681 20.1717C132.99 19.7653 132.451 19.1907 132.063 18.4479C131.675 17.7051 131.481 16.8432 131.481 15.8622C131.481 14.8812 131.675 14.0263 132.063 13.2975C132.451 12.5547 132.99 11.9872 133.681 11.5947C134.385 11.2023 135.19 11.0061 136.096 11.0061C137.002 11.0061 137.8 11.2023 138.49 11.5947C139.18 11.9872 139.719 12.5547 140.107 13.2975C140.495 14.0263 140.689 14.8812 140.689 15.8622C140.689 16.8432 140.495 17.7051 140.107 18.4479C139.719 19.1907 139.18 19.7653 138.49 20.1717Z" fill="black"/>
<path d="M147.162 12.0152C146.501 13.1504 146.17 14.4397 146.17 15.8832C146.17 17.3267 146.501 18.6161 147.162 19.7512C147.838 20.8864 148.751 21.7764 149.901 22.421C151.066 23.0517 152.367 23.367 153.805 23.367C155.501 23.367 156.975 22.9536 158.226 22.1267C159.491 21.2858 160.375 20.1156 160.878 18.6161H157.406C157.061 19.3168 156.572 19.8493 155.94 20.2137C155.321 20.5641 154.603 20.7393 153.783 20.7393C152.906 20.7393 152.123 20.5431 151.432 20.1507C150.757 19.7442 150.225 19.1766 149.837 18.4479C149.463 17.7051 149.276 16.8502 149.276 15.8832C149.276 14.9022 149.463 14.0473 149.837 13.3185C150.225 12.5898 150.757 12.0292 151.432 11.6368C152.123 11.2304 152.906 11.0272 153.783 11.0272C154.603 11.0272 155.321 11.2023 155.94 11.5527C156.572 11.9031 157.061 12.4286 157.406 13.1293H160.878C160.375 11.6438 159.491 10.4806 158.226 9.63971C156.96 8.79883 155.487 8.37839 153.805 8.37839C152.367 8.37839 151.066 8.70073 149.901 9.3454C148.751 9.97606 147.838 10.866 147.162 12.0152Z" fill="black"/>
<path d="M167.339 23.2409V8.56759H164.32V23.2409H167.339Z" fill="black"/>
<path d="M174.204 14.6219V10.9431H179.918V8.54657H171.184V23.2409H179.918V20.8444H174.204V16.9553H179.271V14.6219H174.204Z" fill="black"/>
<path d="M193.768 10.9431V8.56759H182.727V10.9431H186.738V23.2409H189.757V10.9431H193.768Z" fill="black"/>
<path d="M203.713 18.1326L208.803 8.56759H205.439L202.225 15.2736L198.991 8.56759H195.583L200.694 18.1326V23.2409H203.713V18.1326Z" fill="black"/>
<path d="M50.2 28.2628H34.6248V30.1314H50.2V28.2628Z" fill="black"/>
<path d="M3.97766 16C3.97766 15.0377 4.19811 14.1781 4.639 13.4213C5.08949 12.6552 5.69812 12.0619 6.46489 11.6415C7.24126 11.2117 8.10867 10.9968 9.06714 10.9968C10.1886 10.9968 11.171 11.2771 12.0144 11.8377C12.8579 12.3982 13.4474 13.1737 13.7828 14.1641H11.4681C11.2381 13.6969 10.9122 13.3466 10.4905 13.113C10.0783 12.8794 9.5991 12.7626 9.05277 12.7626C8.4681 12.7626 7.94573 12.8981 7.48567 13.1691C7.03518 13.4307 6.68055 13.8044 6.42176 14.2902C6.17256 14.7761 6.04796 15.346 6.04796 16C6.04796 16.6447 6.17256 17.2146 6.42176 17.7098C6.68055 18.1956 7.03518 18.574 7.48567 18.845C7.94573 19.1066 8.4681 19.2374 9.05277 19.2374C9.5991 19.2374 10.0783 19.1206 10.4905 18.887C10.9122 18.6441 11.2381 18.2891 11.4681 17.8219H13.7828C13.4474 18.8216 12.8579 19.6018 12.0144 20.1623C11.1806 20.7136 10.1981 20.9892 9.06714 20.9892C8.10867 20.9892 7.24126 20.779 6.46489 20.3585C5.69812 19.9288 5.08949 19.3355 4.639 18.5787C4.19811 17.8219 3.97766 16.9623 3.97766 16Z" fill="#B41BB7"/>
<path d="M19.542 21.0032C18.8423 21.0032 18.2097 20.8864 17.6442 20.6528C17.0883 20.4193 16.6474 20.0829 16.3215 19.6438C15.9956 19.2047 15.8279 18.6861 15.8183 18.0882H17.9749C18.0036 18.4899 18.1474 18.8076 18.4062 19.0412C18.6746 19.2747 19.0388 19.3915 19.4988 19.3915C19.9685 19.3915 20.3375 19.2841 20.6059 19.0692C20.8742 18.845 21.0084 18.5553 21.0084 18.2003C21.0084 17.9107 20.9174 17.6724 20.7353 17.4855C20.5532 17.2987 20.3231 17.1539 20.0452 17.0511C19.7864 16.943 19.4296 16.8262 18.9748 16.7007H11.5017V15.2993H16.2677C15.9873 14.9272 15.8471 14.4367 15.8471 13.8277C15.8471 13.2485 15.9956 12.7439 16.2927 12.3142C16.5899 11.8844 17.0068 11.5574 17.5436 11.3331C18.0803 11.0996 18.6937 10.9828 19.3838 10.9828C20.419 10.9828 21.2576 11.2304 21.8998 11.7255C22.5516 12.2114 22.911 12.8934 22.9781 13.7717H20.764C20.7449 13.4353 20.5963 13.1597 20.3183 12.9448C20.05 12.7206 19.6905 12.6085 19.2401 12.6085C18.8471 12.6085 18.5308 12.7066 18.2912 12.9028C18.0611 13.099 17.9461 13.3839 17.9461 13.7577C17.9461 14.0193 18.0324 14.2388 18.2049 14.4163C18.387 14.5845 18.6075 14.7247 18.8662 14.8368C19.1346 14.9396 19.5084 15.061 19.9877 15.2012C20.6394 15.388 21.1714 15.5749 21.5835 15.7618C21.9957 15.9486 22.3503 16.2289 22.6474 16.6026C22.9445 16.9764 23.0931 17.4669 23.0931 18.0742C23.0931 18.5974 22.9541 19.0832 22.6762 19.5317C22.3982 19.9801 21.9909 20.3399 21.4541 20.6108C20.9174 20.8724 20.28 21.0032 19.542 21.0032Z" fill="#B41BB7"/>
<path fill-rule="evenodd" clip-rule="evenodd" d="M0 0V32H28.874V0H0ZM27.4363 1.40146H1.43771V30.5985H27.4363V1.40146Z" fill="#B41BB7"/>
</svg>
