<svg width="375" height="659" viewBox="0 0 375 659" fill="none" xmlns="http://www.w3.org/2000/svg">
<mask id="path-1-inside-1_1_118" fill="white">
<path fill-rule="evenodd" clip-rule="evenodd" d="M0 24C0 10.7452 10.7452 0 24 0H351C364.255 0 375 10.7452 375 24V305.332C363.649 307.236 355 317.108 355 329C355 340.892 363.649 350.764 375 352.668V635C375 648.255 364.255 659 351 659H24C10.7452 659 0 648.255 0 635V351.963C9.84019 348.967 17 339.82 17 329C17 318.18 9.84019 309.033 0 306.037V24Z"/>
</mask>
<path fill-rule="evenodd" clip-rule="evenodd" d="M0 24C0 10.7452 10.7452 0 24 0H351C364.255 0 375 10.7452 375 24V305.332C363.649 307.236 355 317.108 355 329C355 340.892 363.649 350.764 375 352.668V635C375 648.255 364.255 659 351 659H24C10.7452 659 0 648.255 0 635V351.963C9.84019 348.967 17 339.82 17 329C17 318.18 9.84019 309.033 0 306.037V24Z" fill="white"/>
<path d="M375 305.332L375.165 306.318L376 306.178V305.332H375ZM375 352.668H376V351.822L375.165 351.682L375 352.668ZM0 351.963L-0.291249 351.007L-1 351.222V351.963H0ZM0 306.037H-1V306.778L-0.291249 306.993L0 306.037ZM24 -1C10.1929 -1 -1 10.1929 -1 24H1C1 11.2974 11.2975 1 24 1V-1ZM351 -1H24V1H351V-1ZM376 24C376 10.1929 364.807 -1 351 -1V1C363.703 1 374 11.2975 374 24H376ZM376 305.332V24H374V305.332H376ZM356 329C356 317.605 364.288 308.143 375.165 306.318L374.835 304.346C363.01 306.329 354 316.612 354 329H356ZM375.165 351.682C364.288 349.857 356 340.395 356 329H354C354 341.388 363.01 351.671 374.835 353.654L375.165 351.682ZM376 635V352.668H374V635H376ZM351 660C364.807 660 376 648.807 376 635H374C374 647.703 363.703 658 351 658V660ZM24 660H351V658H24V660ZM-1 635C-1 648.807 10.1929 660 24 660V658C11.2975 658 1 647.703 1 635H-1ZM-1 351.963V635H1V351.963H-1ZM16 329C16 339.367 9.13972 348.135 -0.291249 351.007L0.291249 352.92C10.5407 349.799 18 340.272 18 329H16ZM-0.291249 306.993C9.13972 309.865 16 318.633 16 329H18C18 317.728 10.5407 308.201 0.291249 305.08L-0.291249 306.993ZM-1 24V306.037H1V24H-1Z" fill="#121418" mask="url(#path-1-inside-1_1_118)"/>
</svg>
