<svg width="664" height="174" viewBox="0 0 664 174" fill="none" xmlns="http://www.w3.org/2000/svg">
<path d="M248.736 46.8803L248.299 47.7798L248.736 46.8803ZM652.667 168.38C652.667 171.325 655.055 173.713 658 173.713C660.946 173.713 663.333 171.325 663.333 168.38C663.333 165.434 660.946 163.047 658 163.047C655.055 163.047 652.667 165.434 652.667 168.38ZM-21.2191 37.5049C1.68296 8.87441 87.8892 -30.1306 248.299 47.7798L249.173 45.9807C88.3939 -32.1089 0.978943 6.55276 -22.7809 36.2556L-21.2191 37.5049ZM248.299 47.7798C449.099 145.307 552.31 170.883 658.014 169.38L657.986 167.38C552.739 168.877 449.86 143.453 249.173 45.9807L248.299 47.7798Z" fill="url(#paint0_linear_1_542)"/>
<defs>
<linearGradient id="paint0_linear_1_542" x1="43.5" y1="1.00005" x2="708.5" y2="168" gradientUnits="userSpaceOnUse">
<stop stop-color="#997CD7"/>
<stop offset="1" stop-color="#FD99B7"/>
</linearGradient>
</defs>
</svg>
