<svg width="16" height="16" viewBox="0 0 16 16" fill="none" xmlns="http://www.w3.org/2000/svg">
<path d="M8.75299 4.86L13.549 10.342C14.115 10.987 13.655 12 12.796 12L3.20399 12C3.01174 12.0002 2.82353 11.9449 2.66188 11.8409C2.50023 11.7368 2.372 11.5884 2.29254 11.4133C2.21308 11.2383 2.18577 11.044 2.21387 10.8538C2.24197 10.6636 2.3243 10.4856 2.45099 10.341L7.24699 4.861C7.34085 4.75359 7.4566 4.6675 7.58648 4.60852C7.71636 4.54954 7.85735 4.51902 7.99999 4.51902C8.14263 4.51902 8.28362 4.54954 8.4135 4.60852C8.54337 4.6675 8.65913 4.75359 8.75299 4.861V4.86Z" fill="black"/>
</svg>
