<svg width="179" height="134" viewBox="0 0 179 134" fill="none" xmlns="http://www.w3.org/2000/svg">
<g opacity="0.7">
<path d="M82 19.8562H86.6187V40.9999C86.6187 41.2749 86.8438 41.4999 87.1187 41.4999H90.8688C91.1438 41.4999 91.3688 41.2749 91.3688 40.9999V19.8562H96C96.4188 19.8562 96.65 19.3749 96.3937 19.0499L89.3937 10.1874C89.347 10.1277 89.2872 10.0794 89.219 10.0461C89.1508 10.0129 89.0759 9.99561 89 9.99561C88.9241 9.99561 88.8492 10.0129 88.781 10.0461C88.7128 10.0794 88.653 10.1277 88.6063 10.1874L81.6063 19.0437C81.35 19.3749 81.5813 19.8562 82 19.8562ZM111.875 39.1249H108.125C107.85 39.1249 107.625 39.3499 107.625 39.6249V49.2499H70.375V39.6249C70.375 39.3499 70.15 39.1249 69.875 39.1249H66.125C65.85 39.1249 65.625 39.3499 65.625 39.6249V51.9999C65.625 53.1062 66.5187 53.9999 67.625 53.9999H110.375C111.481 53.9999 112.375 53.1062 112.375 51.9999V39.6249C112.375 39.3499 112.15 39.1249 111.875 39.1249Z" fill="black"/>
</g>
<path d="M15.8803 94.768C17.0643 94.768 18.099 95.0027 18.9843 95.472C19.8696 95.9413 20.5523 96.6027 21.0323 97.456C21.523 98.2987 21.7683 99.2747 21.7683 100.384C21.7683 101.483 21.523 102.459 21.0323 103.312C20.5523 104.165 19.8643 104.827 18.9683 105.296C18.083 105.765 17.0536 106 15.8803 106H11.6723V94.768H15.8803ZM15.7043 103.632C16.739 103.632 17.5443 103.349 18.1203 102.784C18.6963 102.219 18.9843 101.419 18.9843 100.384C18.9843 99.3493 18.6963 98.544 18.1203 97.968C17.5443 97.392 16.739 97.104 15.7043 97.104H14.4083V103.632H15.7043ZM26.0333 98.56C26.3533 98.0693 26.7533 97.6853 27.2333 97.408C27.7133 97.12 28.2466 96.976 28.8333 96.976V99.872H28.0813C27.3986 99.872 26.8866 100.021 26.5453 100.32C26.204 100.608 26.0333 101.12 26.0333 101.856V106H23.2973V97.072H26.0333V98.56ZM34.2051 106.128C33.3304 106.128 32.5411 105.941 31.8371 105.568C31.1437 105.195 30.5944 104.661 30.1891 103.968C29.7944 103.275 29.5971 102.464 29.5971 101.536C29.5971 100.619 29.7997 99.8133 30.2051 99.12C30.6104 98.416 31.1651 97.8773 31.8691 97.504C32.5731 97.1307 33.3624 96.944 34.2371 96.944C35.1117 96.944 35.9011 97.1307 36.6051 97.504C37.3091 97.8773 37.8637 98.416 38.2691 99.12C38.6744 99.8133 38.8771 100.619 38.8771 101.536C38.8771 102.453 38.6691 103.264 38.2531 103.968C37.8477 104.661 37.2877 105.195 36.5731 105.568C35.8691 105.941 35.0797 106.128 34.2051 106.128ZM34.2051 103.76C34.7277 103.76 35.1704 103.568 35.5331 103.184C35.9064 102.8 36.0931 102.251 36.0931 101.536C36.0931 100.821 35.9117 100.272 35.5491 99.888C35.1971 99.504 34.7597 99.312 34.2371 99.312C33.7037 99.312 33.2611 99.504 32.9091 99.888C32.5571 100.261 32.3811 100.811 32.3811 101.536C32.3811 102.251 32.5517 102.8 32.8931 103.184C33.2451 103.568 33.6824 103.76 34.2051 103.76ZM43.0646 98.336C43.3312 97.92 43.6992 97.584 44.1686 97.328C44.6379 97.072 45.1872 96.944 45.8166 96.944C46.5526 96.944 47.2192 97.1307 47.8166 97.504C48.4139 97.8773 48.8832 98.4107 49.2246 99.104C49.5766 99.7973 49.7526 100.603 49.7526 101.52C49.7526 102.437 49.5766 103.248 49.2246 103.952C48.8832 104.645 48.4139 105.184 47.8166 105.568C47.2192 105.941 46.5526 106.128 45.8166 106.128C45.1979 106.128 44.6486 106 44.1686 105.744C43.6992 105.488 43.3312 105.157 43.0646 104.752V110.256H40.3286V97.072H43.0646V98.336ZM46.9686 101.52C46.9686 100.837 46.7766 100.304 46.3926 99.92C46.0192 99.5253 45.5552 99.328 45.0006 99.328C44.4566 99.328 43.9926 99.5253 43.6086 99.92C43.2352 100.315 43.0486 100.853 43.0486 101.536C43.0486 102.219 43.2352 102.757 43.6086 103.152C43.9926 103.547 44.4566 103.744 45.0006 103.744C45.5446 103.744 46.0086 103.547 46.3926 103.152C46.7766 102.747 46.9686 102.203 46.9686 101.52ZM64.2106 94.768L60.3226 102.288V106H57.5866V102.288L53.6986 94.768H56.8026L58.9786 99.472L61.1386 94.768H64.2106ZM69.3769 106.128C68.5023 106.128 67.7129 105.941 67.0089 105.568C66.3156 105.195 65.7663 104.661 65.3609 103.968C64.9663 103.275 64.7689 102.464 64.7689 101.536C64.7689 100.619 64.9716 99.8133 65.3769 99.12C65.7823 98.416 66.3369 97.8773 67.0409 97.504C67.7449 97.1307 68.5343 96.944 69.4089 96.944C70.2836 96.944 71.0729 97.1307 71.7769 97.504C72.4809 97.8773 73.0356 98.416 73.4409 99.12C73.8463 99.8133 74.0489 100.619 74.0489 101.536C74.0489 102.453 73.8409 103.264 73.4249 103.968C73.0196 104.661 72.4596 105.195 71.7449 105.568C71.0409 105.941 70.2516 106.128 69.3769 106.128ZM69.3769 103.76C69.8996 103.76 70.3423 103.568 70.7049 103.184C71.0783 102.8 71.2649 102.251 71.2649 101.536C71.2649 100.821 71.0836 100.272 70.7209 99.888C70.3689 99.504 69.9316 99.312 69.4089 99.312C68.8756 99.312 68.4329 99.504 68.0809 99.888C67.7289 100.261 67.5529 100.811 67.5529 101.536C67.5529 102.251 67.7236 102.8 68.0649 103.184C68.4169 103.568 68.8543 103.76 69.3769 103.76ZM84.3164 97.072V106H81.5804V104.784C81.3031 105.179 80.9244 105.499 80.4444 105.744C79.9751 105.979 79.4524 106.096 78.8764 106.096C78.1938 106.096 77.5911 105.947 77.0684 105.648C76.5458 105.339 76.1404 104.896 75.8524 104.32C75.5644 103.744 75.4204 103.067 75.4204 102.288V97.072H78.1404V101.92C78.1404 102.517 78.2951 102.981 78.6044 103.312C78.9138 103.643 79.3298 103.808 79.8524 103.808C80.3858 103.808 80.8071 103.643 81.1164 103.312C81.4258 102.981 81.5804 102.517 81.5804 101.92V97.072H84.3164ZM89.0177 98.56C89.3377 98.0693 89.7377 97.6853 90.2177 97.408C90.6977 97.12 91.231 96.976 91.8177 96.976V99.872H91.0657C90.383 99.872 89.871 100.021 89.5297 100.32C89.1884 100.608 89.0177 101.12 89.0177 101.856V106H86.2817V97.072H89.0177V98.56ZM106.564 106H103.828L99.2521 99.072V106H96.5161V94.768H99.2521L103.828 101.728V94.768H106.564V106ZM115.859 94.768V96.96H111.283V99.328H114.707V101.456H111.283V106H108.547V94.768H115.859ZM125.377 94.768V96.96H122.401V106H119.665V96.96H116.689V94.768H125.377ZM139.869 94.768V106H137.133V101.376H132.877V106H130.141V94.768H132.877V99.168H137.133V94.768H139.869ZM150.26 101.392C150.26 101.648 150.244 101.915 150.212 102.192H144.02C144.063 102.747 144.239 103.173 144.548 103.472C144.868 103.76 145.258 103.904 145.716 103.904C146.399 103.904 146.874 103.616 147.14 103.04H150.052C149.903 103.627 149.631 104.155 149.236 104.624C148.852 105.093 148.367 105.461 147.78 105.728C147.194 105.995 146.538 106.128 145.812 106.128C144.938 106.128 144.159 105.941 143.476 105.568C142.794 105.195 142.26 104.661 141.876 103.968C141.492 103.275 141.3 102.464 141.3 101.536C141.3 100.608 141.487 99.7973 141.86 99.104C142.244 98.4107 142.778 97.8773 143.46 97.504C144.143 97.1307 144.927 96.944 145.812 96.944C146.676 96.944 147.444 97.1253 148.116 97.488C148.788 97.8507 149.311 98.368 149.684 99.04C150.068 99.712 150.26 100.496 150.26 101.392ZM147.46 100.672C147.46 100.203 147.3 99.8293 146.98 99.552C146.66 99.2747 146.26 99.136 145.78 99.136C145.322 99.136 144.932 99.2693 144.612 99.536C144.303 99.8027 144.111 100.181 144.036 100.672H147.46ZM154.44 98.56C154.76 98.0693 155.16 97.6853 155.64 97.408C156.12 97.12 156.653 96.976 157.24 96.976V99.872H156.488C155.805 99.872 155.293 100.021 154.952 100.32C154.61 100.608 154.44 101.12 154.44 101.856V106H151.704V97.072H154.44V98.56ZM166.963 101.392C166.963 101.648 166.947 101.915 166.915 102.192H160.723C160.766 102.747 160.942 103.173 161.251 103.472C161.571 103.76 161.961 103.904 162.419 103.904C163.102 103.904 163.577 103.616 163.843 103.04H166.755C166.606 103.627 166.334 104.155 165.939 104.624C165.555 105.093 165.07 105.461 164.483 105.728C163.897 105.995 163.241 106.128 162.515 106.128C161.641 106.128 160.862 105.941 160.179 105.568C159.497 105.195 158.963 104.661 158.579 103.968C158.195 103.275 158.003 102.464 158.003 101.536C158.003 100.608 158.19 99.7973 158.563 99.104C158.947 98.4107 159.481 97.8773 160.163 97.504C160.846 97.1307 161.63 96.944 162.515 96.944C163.379 96.944 164.147 97.1253 164.819 97.488C165.491 97.8507 166.014 98.368 166.387 99.04C166.771 99.712 166.963 100.496 166.963 101.392ZM164.163 100.672C164.163 100.203 164.003 99.8293 163.683 99.552C163.363 99.2747 162.963 99.136 162.483 99.136C162.025 99.136 161.635 99.2693 161.315 99.536C161.006 99.8027 160.814 100.181 160.739 100.672H164.163Z" fill="black"/>
</svg>
