<svg width="87" height="96" viewBox="0 0 87 96" fill="none" xmlns="http://www.w3.org/2000/svg">
<mask id="mask0_1_4" style="mask-type:alpha" maskUnits="userSpaceOnUse" x="0" y="0" width="87" height="96">
<rect width="86.4" height="96" fill="#D9D9D9"/>
</mask>
<g mask="url(#mask0_1_4)">
<path d="M44.045 47.5324L43.4447 47.0398L32.2658 60.9355L32.8661 61.4282L44.045 47.5324Z" fill="white"/>
<path d="M54.492 60.8118L44.0482 47.051L43.4343 47.5263L53.8781 61.287L54.492 60.8118Z" fill="white"/>
<path d="M61.4513 42.374L61.2308 41.6252L43.6327 46.9102L43.8531 47.6589L61.4513 42.374Z" fill="white"/>
<path d="M44.5228 47.2826L44.3881 28.889L43.6146 28.8948L43.7494 47.2884L44.5228 47.2826Z" fill="white"/>
<path d="M43.8585 46.9124L26.7788 41.6301L26.5523 42.3771L43.632 47.6594L43.8585 46.9124Z" fill="white"/>
<path d="M35.8974 36.1699L35.166 35.9158L29.9304 51.287L30.6618 51.5411L35.8974 36.1699Z" fill="white"/>
<path d="M43.9609 60.4996L30.5183 51.0961L30.0779 51.7383L43.5205 61.1418L43.9609 60.4996Z" fill="white"/>
<path d="M56.676 52.1812L56.2334 51.5405L43.5245 60.4964L43.967 61.1371L56.676 52.1812Z" fill="white"/>
<path d="M56.8195 51.7494L52.29 36.3337L51.5485 36.556L56.078 51.9716L56.8195 51.7494Z" fill="white"/>
<path d="M51.9298 36.0526L35.5369 35.6501L35.5181 36.4311L51.911 36.8335L51.9298 36.0526Z" fill="white"/>
<path d="M43.9659 61.1395L43.5186 60.5022L22.6331 75.4579L23.0805 76.0952L43.9659 61.1395Z" fill="white"/>
<path d="M65.2353 75.6439L56.814 51.729L56.0852 51.9908L64.5066 75.9057L65.2353 75.6439Z" fill="white"/>
<path d="M77.5094 36.5547L77.5011 35.7736L51.9157 36.0501L51.9239 36.8312L77.5094 36.5547Z" fill="white"/>
<path d="M43.8726 10.9112L43.1365 10.6741L35.1617 35.9242L35.8978 36.1614L43.8726 10.9112Z" fill="white"/>
<path d="M30.5329 51.1034L10.004 35.5736L9.54035 36.1989L30.0693 51.7287L30.5329 51.1034Z" fill="white"/>
<path d="M22.1112 18.5531L21.3683 18.3358L9.08619 61.1641L9.82909 61.3815L22.1112 18.5531Z" fill="white"/>
<path d="M44.6765 84.0097L9.6759 60.9465L9.25329 61.6008L44.2539 84.664L44.6765 84.0097Z" fill="white"/>
<path d="M77.0216 57.6441L76.5284 57.0422L44.2236 84.0456L44.7168 84.6474L77.0216 57.6441Z" fill="white"/>
<path d="M77.137 57.1992L61.3357 17.9913L60.6193 18.2858L76.4206 57.4937L77.137 57.1992Z" fill="white"/>
<path d="M60.9819 18.2501L60.9706 17.469L21.8443 18.046L21.8556 18.8271L60.9819 18.2501Z" fill="white"/>
<path d="M32.566 60.8389H9.46619V61.62H32.566V60.8389Z" fill="white"/>
<path d="M27.162 42.3988L22.2319 18.3064L21.4745 18.4645L26.4046 42.5569L27.162 42.3988Z" fill="white"/>
<path d="M61.1884 18.2421L60.7685 17.5861L43.7635 28.689L44.1834 29.3451L61.1884 18.2421Z" fill="white"/>
<path d="M77.0529 57.0712L61.6129 41.7262L61.0704 42.283L76.5105 57.628L77.0529 57.0712Z" fill="white"/>
<path d="M54.5455 61.2011L53.8328 60.8976L44.1103 84.1892L44.823 84.4927L54.5455 61.2011Z" fill="white"/>
<path d="M9.77088 38.1721C11.0216 38.1721 12.0355 37.1481 12.0355 35.8848C12.0355 34.6216 11.0216 33.5975 9.77088 33.5975C8.52015 33.5975 7.50623 34.6216 7.50623 35.8848C7.50623 37.1481 8.52015 38.1721 9.77088 38.1721Z" fill="white"/>
<path d="M30.3208 55.2271C32.3669 55.2271 34.0256 53.5518 34.0256 51.4852C34.0256 49.4187 32.3669 47.7434 30.3208 47.7434C28.2747 47.7434 26.616 49.4187 26.616 51.4852C26.616 53.5518 28.2747 55.2271 30.3208 55.2271Z" fill="white"/>
<path d="M76.7828 59.6343C78.0335 59.6343 79.0474 58.6102 79.0474 57.347C79.0474 56.0837 78.0335 55.0597 76.7828 55.0597C75.532 55.0597 74.5181 56.0837 74.5181 57.347C74.5181 58.6102 75.532 59.6343 76.7828 59.6343Z" fill="white"/>
<path d="M77.508 38.4552C78.7583 38.4552 79.7718 37.4315 79.7718 36.1687C79.7718 34.9059 78.7583 33.8822 77.508 33.8822C76.2577 33.8822 75.2441 34.9059 75.2441 36.1687C75.2441 37.4315 76.2577 38.4552 77.508 38.4552Z" fill="white"/>
<path d="M44.4678 86.6257C45.7185 86.6257 46.7324 85.6017 46.7324 84.3384C46.7324 83.0752 45.7185 82.0511 44.4678 82.0511C43.217 82.0511 42.2031 83.0752 42.2031 84.3384C42.2031 85.6017 43.217 86.6257 44.4678 86.6257Z" fill="white"/>
<path d="M9.46436 63.5632C10.7151 63.5632 11.729 62.5392 11.729 61.2759C11.729 60.0127 10.7151 58.9886 9.46436 58.9886C8.21363 58.9886 7.19971 60.0127 7.19971 61.2759C7.19971 62.5392 8.21363 63.5632 9.46436 63.5632Z" fill="white"/>
<path d="M43.7427 51.5907C46.0968 51.5907 48.0052 49.6633 48.0052 47.2857C48.0052 44.908 46.0968 42.9806 43.7427 42.9806C41.3886 42.9806 39.4802 44.908 39.4802 47.2857C39.4802 49.6633 41.3886 51.5907 43.7427 51.5907Z" fill="white"/>
<path d="M35.6081 39.5895C37.6538 39.5895 39.3121 37.9146 39.3121 35.8485C39.3121 33.7824 37.6538 32.1074 35.6081 32.1074C33.5624 32.1074 31.9041 33.7824 31.9041 35.8485C31.9041 37.9146 33.5624 39.5895 35.6081 39.5895Z" fill="white"/>
<path d="M51.9197 40.2477C53.9658 40.2477 55.6245 38.5724 55.6245 36.5059C55.6245 34.4393 53.9658 32.764 51.9197 32.764C49.8735 32.764 48.2148 34.4393 48.2148 36.5059C48.2148 38.5724 49.8735 40.2477 51.9197 40.2477Z" fill="white"/>
<path d="M64.8705 78.0598C66.1208 78.0598 67.1343 77.0361 67.1343 75.7733C67.1343 74.5105 66.1208 73.4868 64.8705 73.4868C63.6201 73.4868 62.6066 74.5105 62.6066 75.7733C62.6066 77.0361 63.6201 78.0598 64.8705 78.0598Z" fill="white"/>
<path d="M43.9767 64.7519C46.0228 64.7519 47.6815 63.0766 47.6815 61.01C47.6815 58.9435 46.0228 57.2682 43.9767 57.2682C41.9306 57.2682 40.2719 58.9435 40.2719 61.01C40.2719 63.0766 41.9306 64.7519 43.9767 64.7519Z" fill="white"/>
<path d="M56.4295 55.5872C58.4757 55.5872 60.1344 53.9119 60.1344 51.8454C60.1344 49.7788 58.4757 48.1035 56.4295 48.1035C54.3834 48.1035 52.7247 49.7788 52.7247 51.8454C52.7247 53.9119 54.3834 55.5872 56.4295 55.5872Z" fill="white"/>
<path d="M26.6628 43.5868C27.5291 43.5868 28.2313 42.8775 28.2313 42.0026C28.2313 41.1276 27.5291 40.4183 26.6628 40.4183C25.7965 40.4183 25.0942 41.1276 25.0942 42.0026C25.0942 42.8775 25.7965 43.5868 26.6628 43.5868Z" fill="white"/>
<path d="M43.9739 30.5254C44.7979 30.5254 45.4659 29.8507 45.4659 29.0185C45.4659 28.1863 44.7979 27.5116 43.9739 27.5116C43.1499 27.5116 42.4819 28.1863 42.4819 29.0185C42.4819 29.8507 43.1499 30.5254 43.9739 30.5254Z" fill="white"/>
<path d="M32.5662 62.8458C33.4752 62.8458 34.2121 62.1016 34.2121 61.1835C34.2121 60.2654 33.4752 59.5211 32.5662 59.5211C31.6572 59.5211 30.9203 60.2654 30.9203 61.1835C30.9203 62.1016 31.6572 62.8458 32.5662 62.8458Z" fill="white"/>
<path d="M54.1849 62.6498C55.0619 62.6498 55.7728 61.9317 55.7728 61.046C55.7728 60.1603 55.0619 59.4423 54.1849 59.4423C53.308 59.4423 52.597 60.1603 52.597 61.046C52.597 61.9317 53.308 62.6498 54.1849 62.6498Z" fill="white"/>
<path d="M43.5086 13.0809C44.7593 13.0809 45.7732 12.0569 45.7732 10.7936C45.7732 9.5304 44.7593 8.50635 43.5086 8.50635C42.2578 8.50635 41.2439 9.5304 41.2439 10.7936C41.2439 12.0569 42.2578 13.0809 43.5086 13.0809Z" fill="white"/>
<path d="M60.9783 20.427C62.229 20.427 63.2429 19.4029 63.2429 18.1397C63.2429 16.8765 62.229 15.8524 60.9783 15.8524C59.7275 15.8524 58.7136 16.8765 58.7136 18.1397C58.7136 19.4029 59.7275 20.427 60.9783 20.427Z" fill="white"/>
<path d="M61.341 43.7408C62.2914 43.7408 63.0619 42.9626 63.0619 42.0026C63.0619 41.0427 62.2914 40.2645 61.341 40.2645C60.3905 40.2645 59.6201 41.0427 59.6201 42.0026C59.6201 42.9626 60.3905 43.7408 61.341 43.7408Z" fill="white"/>
<path d="M22.8584 78.0609C24.1091 78.0609 25.1231 77.0369 25.1231 75.7736C25.1231 74.5104 24.1091 73.4863 22.8584 73.4863C21.6077 73.4863 20.5938 74.5104 20.5938 75.7736C20.5938 77.0369 21.6077 78.0609 22.8584 78.0609Z" fill="white"/>
<path d="M21.8511 20.6726C23.1018 20.6726 24.1157 19.6485 24.1157 18.3853C24.1157 17.1221 23.1018 16.098 21.8511 16.098C20.6003 16.098 19.5864 17.1221 19.5864 18.3853C19.5864 19.6485 20.6003 20.6726 21.8511 20.6726Z" fill="white"/>
</g>
</svg>
